<svg xmlns="http://www.w3.org/2000/svg" viewBox="0 0 24 24"><defs><style>.cls-1{fill:#000e52;}</style></defs><title>Gematik_Piktogramme_Krankenkasse Blau</title><g id="Krankenkasse"><path class="cls-1" d="M7.49,22h-4a.55.55,0,0,1-.36-.15A.5.5,0,0,1,3,21.54v-10a.5.5,0,0,1,.5-.5h2a.5.5,0,0,1,0,1H4v9H7V2.51a.51.51,0,0,1,.5-.5h0l13,0a.5.5,0,0,1,.5.5v19a.5.5,0,0,1-.5.5H16.41a.5.5,0,0,1-.5-.5V17H13v4.5a.5.5,0,0,1-.5.5H10.35a.5.5,0,1,1,0-1H12v-4.5a.5.5,0,0,1,.5-.5h3.92a.5.5,0,0,1,.5.5V21H20V3L8,3V21.54A.5.5,0,0,1,7.49,22Z"/><path class="cls-1" d="M11.15,7.48v2h-1V5h1V6.88L12.62,5h1.19L12.1,7.16l2.06,2.32H12.92Z"/><path class="cls-1" d="M15.43,7.48v2h-1V5h1V6.88L16.91,5H18.1L16.39,7.16l2.06,2.32H17.2Z"/></g></svg>