<svg id="Krankenhaus" xmlns="http://www.w3.org/2000/svg" viewBox="0 0 24 24"><defs><style>.cls-1{fill:#000e52;}</style></defs><title>Gematik_Piktogramme_Krankenhaus Blau</title><path class="cls-1" d="M4.51,22a.5.5,0,0,1-.5-.5V9a.48.48,0,0,1,.17-.37l7.48-6.55a.51.51,0,0,1,.66,0l7.51,6.51A.48.48,0,0,1,20,9V21.5a.47.47,0,0,1-.15.35.51.51,0,0,1-.35.15h0l-9,0a.5.5,0,0,1-.5-.5V18H7.48a.5.5,0,0,1-.5-.5v-3a.5.5,0,0,1,.5-.5H10V11.47a.51.51,0,0,1,.5-.5h3a.5.5,0,0,1,.5.5V14h2.48a.5.5,0,0,1,.5.5V17.5a.5.5,0,0,1-.5.5H14v1.45a.5.5,0,0,1-.5.5.5.5,0,0,1-.5-.5V17.5a.51.51,0,0,1,.5-.5H16V15H13.5a.51.51,0,0,1-.5-.5V12H11v2.52a.47.47,0,0,1-.15.35.51.51,0,0,1-.35.15H8v2H10.5a.51.51,0,0,1,.5.5V21l8,0V9.23L12,3.16,5,9.27V21.5a.5.5,0,0,1-.5.5Z"/></svg>