<?xml version="1.0" encoding="UTF-8"?><svg id="Abschluß" xmlns="http://www.w3.org/2000/svg" viewBox="0 0 504 504"><defs><style>.cls-1{fill:#000e52;}</style></defs><path class="cls-1" d="m355.19,138.47h34.24c5.8,0,10.5-4.7,10.5-10.5v-34.24c0-5.8-4.7-10.5-10.5-10.5h-34.24c-5.8,0-10.5,4.7-10.5,10.5v34.24c0,5.8,4.7,10.5,10.5,10.5Zm10.5-34.24h13.24v13.24h-13.24v-13.24Z"/><path class="cls-1" d="m389.43,191.54h-34.24c-5.8,0-10.5,4.7-10.5,10.5v34.24c0,5.8,4.7,10.5,10.5,10.5h34.24c5.8,0,10.5-4.7,10.5-10.5v-34.24c0-5.8-4.7-10.5-10.5-10.5Zm-10.5,34.24h-13.24v-13.24h13.24v13.24Z"/><path class="cls-1" d="m491.07,83.23h-34.24c-5.8,0-10.5,4.7-10.5,10.5v34.24c0,5.8,4.7,10.5,10.5,10.5h34.24c5.8,0,10.5-4.7,10.5-10.5v-34.24c0-5.8-4.7-10.5-10.5-10.5Zm-10.5,34.24h-13.24v-13.24h13.24v13.24Z"/><path class="cls-1" d="m491.07,191.54h-33.68c-5.8,0-10.5,4.7-10.5,10.5v33.68c0,5.8,4.7,10.5,10.5,10.5s10.5-4.7,10.5-10.5v-23.18h23.18c5.8,0,10.5-4.7,10.5-10.5s-4.7-10.5-10.5-10.5Z"/><path class="cls-1" d="m422.46,83.27c-5.8,0-10.5,4.7-10.5,10.5v33.68c0,5.8,4.7,10.5,10.5,10.5s10.5-4.7,10.5-10.5v-33.68c0-5.8-4.7-10.5-10.5-10.5Z"/><path class="cls-1" d="m456.96,174.62h33.68c5.8,0,10.5-4.7,10.5-10.5s-4.7-10.5-10.5-10.5h-33.68c-5.8,0-10.5,4.7-10.5,10.5s4.7,10.5,10.5,10.5Z"/><path class="cls-1" d="m422.46,153.62h-67.03c-5.8,0-10.5,4.7-10.5,10.5s4.7,10.5,10.5,10.5h56.53v20.76c0,5.8,4.7,10.5,10.5,10.5s10.5-4.7,10.5-10.5v-31.26c0-5.8-4.7-10.5-10.5-10.5Z"/><path class="cls-1" d="m312.35,93.14c-3.77-18.93-15.26-31.93-32.33-36.6-12.15-3.32-22.94-1.34-24.13-1.1l-128.76,25.65c-1.19.24-11.92,2.54-21.87,10.26-13.99,10.86-19.61,27.27-15.84,46.2l10.35,51.96-29.18,19.96c-2.3,1.57-3.88,3.99-4.39,6.73l-14.99,79.96-45.57,31.18c-4.79,3.27-6.01,9.81-2.74,14.59,2.03,2.97,5.33,4.57,8.67,4.57,2.04,0,4.11-.59,5.92-1.84l49.16-33.64c2.3-1.57,3.88-3.99,4.39-6.73l14.99-79.96,69.08-47.26c4.81-3.29,11.39-2.05,14.68,2.75,1.59,2.33,2.18,5.14,1.66,7.91-.52,2.77-2.09,5.18-4.42,6.77l-52.55,35.96c-2.17,1.49-3.6,3.65-4.22,6.01-.42,1.53-.51,3.17-.18,4.84l6.43,32.26c1,4.99,5.38,8.45,10.29,8.45.68,0,1.37-.07,2.06-.2,5.69-1.13,9.38-6.66,8.25-12.35l-5.09-25.55,10.04-6.87,27.07,135.89c.54,2.73,2.15,5.13,4.47,6.68,1.74,1.16,3.77,1.77,5.83,1.77.68,0,1.37-.07,2.05-.2l138.52-27.6c2.73-.54,5.13-2.15,6.68-4.47,1.55-2.32,2.11-5.15,1.56-7.88l-47.21-236.95c-1.13-5.69-6.66-9.38-12.35-8.25l-138.52,27.6c-2.73.54-5.13,2.15-6.68,4.47-1.55,2.32-2.11,5.15-1.57,7.88l6.72,33.75-10.04,6.87-8.6-43.17c-2.19-10.97.32-19.2,7.67-25.14,6.19-5.01,13.54-6.61,13.55-6.62l128.7-25.64c.07-.01,7.48-1.35,15.11.91,9.06,2.68,14.53,9.31,16.72,20.29l43.98,220.73,10.99,55.19c2.19,10.97-.32,19.2-7.67,25.15-6.19,5.01-13.53,6.61-13.54,6.62l-128.7,25.64c-.07.01-7.47,1.35-15.11-.91-9.06-2.68-14.53-9.32-16.72-20.29l-17.28-86.73c-1.13-5.69-6.66-9.38-12.35-8.25-5.69,1.13-9.38,6.66-8.25,12.35l17.28,86.72c3.77,18.93,15.26,31.93,32.33,36.6,5.4,1.48,10.52,1.9,14.66,1.9,5.18,0,8.81-.67,9.47-.8l128.76-25.65c1.19-.24,11.92-2.54,21.87-10.27,13.98-10.86,19.61-27.27,15.84-46.2l-54.97-275.92Zm-49.84,25.56l43.1,216.35-117.93,23.5-26.77-134.38,17.99-12.31c14.36-9.83,18.05-29.51,8.22-43.87-8.87-12.97-25.77-17.23-39.54-10.71l-3.01-15.09,117.93-23.49Z"/><path class="cls-1" d="m246.64,403.59c.68,0,1.37-.07,2.06-.2l18.39-3.66c5.69-1.13,9.38-6.66,8.25-12.35-1.13-5.69-6.66-9.38-12.35-8.25l-18.39,3.66c-5.69,1.13-9.38,6.66-8.25,12.35,1,4.99,5.38,8.45,10.29,8.45Z"/><path class="cls-1" d="m110.93,366.06l-49.16,33.64c-4.79,3.27-6.01,9.81-2.74,14.59,2.03,2.97,5.33,4.57,8.67,4.57,2.04,0,4.11-.59,5.92-1.84l49.16-33.64c4.79-3.27,6.01-9.81,2.74-14.59-3.28-4.79-9.81-6.01-14.59-2.74Z"/><path class="cls-1" d="m186.91,282.33c-2.04,5.43.7,11.48,6.12,13.53l37.01,13.95c1.2.45,2.45.67,3.7.67,1.58,0,3.15-.36,4.6-1.06,2.6-1.27,4.56-3.55,5.42-6.31l22.66-72.53c1.73-5.53-1.36-11.42-6.89-13.15-5.54-1.73-11.42,1.36-13.15,6.89l-19.35,61.91-26.61-10.03c-5.43-2.04-11.48.7-13.53,6.12Z"/></svg>