<svg xmlns="http://www.w3.org/2000/svg" viewBox="0 0 24 24"><defs><style>.cls-1{fill:#000e52;}</style></defs><title>Gematik_Piktogramme_Stammdaten Blau</title><g id="Stammdaten"><path class="cls-1" d="M21.5,6H2.5a.5.5,0,0,0-.5.5v13a.5.5,0,0,0,.5.5h19a.5.5,0,0,0,.5-.5v-13A.5.5,0,0,0,21.5,6ZM21,19H3V7H21Z"/><path class="cls-1" d="M5.5,17a.5.5,0,0,0,.5-.5v-1a1.5,1.5,0,1,1,3,0v1a.5.5,0,0,0,1,0v-1a2.5,2.5,0,1,0-5,0v1A.5.5,0,0,0,5.5,17Z"/><path class="cls-1" d="M7.5,12A1.5,1.5,0,1,0,6,10.51,1.5,1.5,0,0,0,7.5,12Zm0-2a.5.5,0,0,1,.5.5.5.5,0,0,1-1,0A.5.5,0,0,1,7.5,10Z"/><path class="cls-1" d="M12.5,12h6a.5.5,0,0,0,0-1h-6a.5.5,0,0,0,0,1Z"/><path class="cls-1" d="M12.5,14h6a.5.5,0,0,0,0-1h-6a.5.5,0,0,0,0,1Z"/><path class="cls-1" d="M12.5,16h6a.5.5,0,0,0,0-1h-6a.5.5,0,0,0,0,1Z"/></g></svg>