<?xml version="1.0" encoding="UTF-8" standalone="no"?>
<!-- Created with Inkscape (http://www.inkscape.org/) -->

<svg
   width="96"
   height="96"
   viewBox="0 0 25.400001 25.400001"
   version="1.1"
   id="svg5"
   xmlns="http://www.w3.org/2000/svg">
  <defs
     id="defs2">
    <clipPath
       clipPathUnits="userSpaceOnUse"
       id="clipEmfPath1">
      <path
         d="M 0,0 H 113.43411 V 113.43411 H 0 Z"
         id="path824" />
    </clipPath>
    <pattern
       id="EMFhbasepattern"
       patternUnits="userSpaceOnUse"
       width="6"
       height="6"
       x="0"
       y="0" />
    <clipPath
       clipPathUnits="userSpaceOnUse"
       id="clipEmfPath1-9">
      <path
         d="M 0,0 H 113.43411 V 113.43411 H 0 Z"
         id="path840" />
    </clipPath>
    <pattern
       id="EMFhbasepattern-5"
       patternUnits="userSpaceOnUse"
       width="6"
       height="6"
       x="0"
       y="0" />
    <clipPath
       clipPathUnits="userSpaceOnUse"
       id="clipEmfPath1-8">
      <path
         d="M 0,0 H 113.43411 V 113.43411 H 0 Z"
         id="path856" />
    </clipPath>
    <pattern
       id="EMFhbasepattern-7"
       patternUnits="userSpaceOnUse"
       width="6"
       height="6"
       x="0"
       y="0" />
    <pattern
       id="EMFhbasepattern-2"
       patternUnits="userSpaceOnUse"
       width="6"
       height="6"
       x="0"
       y="0" />
    <pattern
       id="EMFhbasepattern-1"
       patternUnits="userSpaceOnUse"
       width="6"
       height="6"
       x="0"
       y="0" />
    <pattern
       id="EMFhbasepattern-0"
       patternUnits="userSpaceOnUse"
       width="6"
       height="6"
       x="0"
       y="0" />
  </defs>
  <g
     id="layer1"
     transform="translate(-100.60392,-94.822354)">
    <g
       clip-path="url(#clipEmfPath1)"
       id="g830"
       transform="scale(0.26458333)" />
    <g
       clip-path="url(#clipEmfPath1-9)"
       id="g846"
       transform="scale(0.26458333)" />
    <g
       clip-path="url(#clipEmfPath1-8)"
       id="g862"
       transform="scale(0.26458333)" />
    <path
       style="fill:#000e52;fill-opacity:1;fill-rule:evenodd;stroke:none;stroke-width:0.264583"
       d="m 118.93154,103.51316 c -0.53796,-0.53884 -1.07591,-1.07768 -1.61387,-1.61652 0.53796,-0.53796 1.07591,-1.07592 1.61387,-1.61388 0.53972,0.53796 1.07945,1.07592 1.61917,1.61388 -0.53972,0.53884 -1.07945,1.07768 -1.61917,1.61652 z m -10.89233,10.87116 c -0.53884,0.53884 -1.07768,1.07768 -1.61652,1.61652 -0.53972,-0.53884 -1.07944,-1.07768 -1.61916,-1.61652 0.53972,-0.53796 1.07944,-1.07591 1.61916,-1.61387 0.53884,0.53796 1.07768,1.07591 1.61652,1.61387 z m 16.33982,-17.924587 c -0.36082,-0.374905 -0.91337,-0.101125 -1.15452,0.269791 -1.01407,1.012443 -2.02813,2.024886 -3.04219,3.037329 -0.41267,-0.308614 -0.67352,-0.910204 -1.21984,-0.989468 -0.56593,0.01124 -0.8289,0.645445 -1.23931,0.947058 -0.43095,0.430397 -0.86189,0.860787 -1.29284,1.291177 -0.41124,-0.31499 -0.67429,-0.89455 -1.20915,-1.00797 -0.58369,-0.01669 -0.8506,0.64309 -1.26721,0.94837 -3.10023,3.11561 -6.21964,6.21522 -9.30794,9.34078 -0.30361,0.43641 0.11209,0.88172 0.44201,1.14361 0.41508,0.28397 0.51498,0.56795 0.0419,0.85193 -0.40384,0.40384 -0.80767,0.80767 -1.21151,1.21151 -0.41965,-0.31244 -0.68568,-0.93716 -1.25149,-0.99158 -0.56626,-0.0283 -0.8519,0.77022 -0.39955,1.11115 1.70037,1.67705 3.36588,3.39795 5.08771,5.04803 0.50297,0.33519 1.18391,-0.30813 0.8709,-0.8284 -0.2611,-0.35645 -0.62234,-0.63376 -0.92078,-0.96049 0.53884,-0.53796 1.07768,-1.07591 1.61652,-1.61387 0.40608,0.30597 0.66422,0.88045 1.19048,0.98674 0.56423,0.0297 0.82416,-0.6062 1.22387,-0.89887 1.12161,-1.1369 2.28244,-2.24011 3.37987,-3.39779 0.33355,-0.50603 -0.31029,-1.18306 -0.8312,-0.8709 -1.18167,1.08592 -2.28687,2.26958 -3.43955,3.39252 -0.27101,0.53556 -0.54193,-0.0521 -0.81288,-0.26774 -1.19383,-1.19153 -2.38765,-2.38305 -3.58147,-3.57457 0.53884,-0.53884 1.07768,-1.07768 1.61652,-1.61652 0.74481,0.71471 1.44037,1.49185 2.21455,2.16945 0.51978,0.31488 1.1703,-0.36422 0.831,-0.8706 -0.69353,-0.75068 -1.44594,-1.4529 -2.16154,-2.18544 0.53796,-0.53884 1.07591,-1.07768 1.61387,-1.61652 0.74621,0.71793 1.4462,1.49415 2.21994,2.17734 0.52415,0.30791 1.16604,-0.36522 0.8313,-0.8735 -0.69538,-0.75177 -1.44942,-1.45468 -2.16684,-2.18809 0.53796,-0.53972 1.07592,-1.07944 1.61388,-1.61916 0.74877,0.71778 1.44675,1.49944 2.22512,2.18013 0.52026,0.3137 1.16552,-0.3653 0.831,-0.8708 -0.69492,-0.75637 -1.45319,-1.4578 -2.17212,-2.19333 0.53884,-0.53972 1.07768,-1.07945 1.61652,-1.61917 1.37816,1.37617 2.75437,2.75697 4.13599,4.13064 -1.03376,1.05943 -2.12751,2.06937 -3.12465,3.15906 -0.31302,0.52291 0.36819,1.16392 0.8737,0.8282 1.24063,-1.18741 2.4529,-2.41917 3.65918,-3.64309 0.30627,-0.43604 -0.11305,-0.88394 -0.4427,-1.14542 -0.41518,-0.28398 -0.51838,-0.56791 -0.0432,-0.85175 0.58202,-0.61889 1.25089,-1.16998 1.78221,-1.82863 0.26323,-0.59276 -0.44038,-0.95609 -0.75702,-1.33667 -0.39632,-0.28403 0.34883,-0.5676 0.49864,-0.851403 0.90644,-0.93358 1.87684,-1.817941 2.7453,-2.780786 0.1294,-0.232028 0.0814,-0.550274 -0.11251,-0.732288 z"
       id="path1699" />
  </g>
</svg>
